<svg width="24.000000" height="24.000000" viewBox="0 0 24 24" fill="none" xmlns="http://www.w3.org/2000/svg" xmlns:xlink="http://www.w3.org/1999/xlink">
	<desc>
			Created with Pixso.
	</desc>
	<defs/>
	<path id="Vector" d="M17.5625 1.00488L14.7852 1C11.666 1 9.64844 3.125 9.64844 6.41406L9.64844 8.91016L6.85742 8.91016C6.61523 8.91016 6.41992 9.11133 6.41992 9.35938L6.41992 12.9766C6.41992 13.2246 6.61523 13.4248 6.85742 13.4248L9.64844 13.4248L9.64844 22.5518C9.64844 22.7988 9.84375 23 10.0859 23L13.7285 23C13.9707 23 14.166 22.7988 14.166 22.5518L14.166 13.4248L17.4316 13.4248C17.6719 13.4248 17.8672 13.2246 17.8672 12.9766L17.8691 9.35938C17.8691 9.24023 17.8223 9.12598 17.7402 9.04199C17.6582 8.95801 17.5469 8.91016 17.4316 8.91016L14.166 8.91016L14.166 6.79395C14.166 5.77734 14.4023 5.26074 15.6914 5.26074L17.5625 5.25977C17.8027 5.25977 17.998 5.05957 17.998 4.81152L17.998 1.45312C17.998 1.20605 17.8027 1.00488 17.5625 1.00488Z" fill="#787A80" fill-opacity="1.000000" fill-rule="nonzero"/>
</svg>
