<svg xmlns="http://www.w3.org/2000/svg">
  <symbol id="construction" viewBox="0 0 53 52">
    <g>
      <path
        d="M50.9766 27.5234C51.8179 27.5234 52.5 26.8413 52.5 26V14.625C52.5 13.7837 51.8179 13.1016 50.9766 13.1016C49.9146 13.1016 29.168 13.1016 28.0234 13.1016V3.25C28.0234 2.40866 27.3413 1.72656 26.5 1.72656H10.25C9.40866 1.72656 8.72656 2.40866 8.72656 3.25V13.1016H2.02344C1.18209 13.1016 0.5 13.7837 0.5 14.625V26C0.5 26.8413 1.18209 27.5234 2.02344 27.5234H8.72656V35.8516H2.02344C1.18209 35.8516 0.5 36.5337 0.5 37.375V48.75C0.5 49.5913 1.18209 50.2734 2.02344 50.2734H50.9766C51.8179 50.2734 52.5 49.5913 52.5 48.75V37.375C52.5 36.5337 51.8179 35.8516 50.9766 35.8516H44.2734V27.5234H50.9766ZM49.4531 24.4766C47.8232 24.4766 37.7597 24.4766 36.1484 24.4766V16.1484H49.4531V24.4766ZM33.1016 24.4766C31.5059 24.4766 21.5046 24.4766 19.8984 24.4766V16.1484H33.1016V24.4766ZM11.7734 4.77344H24.9766V13.1016C23.3809 13.1016 13.3796 13.1016 11.7734 13.1016V4.77344ZM3.54688 24.4766V16.1484H16.8516V24.4766C15.2396 24.4766 5.17645 24.4766 3.54688 24.4766ZM11.7734 27.5234H24.9766V35.8516C23.3809 35.8516 13.3796 35.8516 11.7734 35.8516V27.5234ZM3.54688 38.8984H16.8516V47.2266H3.54688V38.8984ZM19.8984 38.8984H33.1016V47.2266H19.8984V38.8984ZM49.4531 38.8984V47.2266H36.1484V38.8984H49.4531ZM41.2266 35.8516C39.6309 35.8516 29.6296 35.8516 28.0234 35.8516V27.5234H41.2266V35.8516Z" />
    </g>
  </symbol>
  <symbol id="plan" viewBox="0 0 53 52">
    <g>
      <path
        d="M46.4062 3.14844C44.1552 3.14844 42.1854 4.37521 41.1303 6.19531H2.02344C1.18209 6.19531 0.5 6.87741 0.5 7.71875V47.3281C0.5 48.1695 1.18209 48.8516 2.02344 48.8516H46.4062C49.7663 48.8516 52.5 46.1179 52.5 42.7578V9.24219C52.5 5.88209 49.7663 3.14844 46.4062 3.14844ZM46.4062 45.8047C45.8103 45.8047 4.1011 45.8047 3.54688 45.8047V9.24219H40.3125V42.7578C40.3125 43.5992 40.9946 44.2812 41.8359 44.2812C42.6773 44.2812 43.3594 43.5992 43.3594 42.7578C43.3594 41.0778 44.7262 39.7109 46.4062 39.7109C48.0863 39.7109 49.4531 41.0778 49.4531 42.7578C49.4531 44.4379 48.0863 45.8047 46.4062 45.8047ZM49.4531 37.4818C48.5563 36.9619 47.5153 36.6641 46.4062 36.6641C45.2972 36.6641 44.2562 36.9619 43.3594 37.4818V9.24219C43.3594 7.56214 44.7262 6.19531 46.4062 6.19531C48.0863 6.19531 49.4531 7.56214 49.4531 9.24219V37.4818Z" />
      <path
        d="M35.6406 12.2891H8.21875C7.37741 12.2891 6.69531 12.9712 6.69531 13.8125V41.2344C6.69531 42.0757 7.37741 42.7578 8.21875 42.7578H23.4531C23.8572 42.7578 24.2446 42.5972 24.5303 42.3115C24.8161 42.0259 24.9766 41.6384 24.9766 41.2344V38.1875C24.9766 36.2013 26.2501 34.507 28.0234 33.8782V41.2344C28.0234 42.0757 28.7055 42.7578 29.5469 42.7578H35.6406C36.482 42.7578 37.1641 42.0757 37.1641 41.2344V13.8125C37.1641 12.9712 36.482 12.2891 35.6406 12.2891ZM34.1172 39.7109H31.0703V32.0938C31.0703 31.2524 30.3882 30.5703 29.5469 30.5703C25.3468 30.5703 21.9297 33.9874 21.9297 38.1875V39.7109H9.74219V30.5703H15.8359V35.1406C15.8359 35.982 16.518 36.6641 17.3594 36.6641C18.2007 36.6641 18.8828 35.982 18.8828 35.1406V29.0469C18.8828 28.2055 18.2007 27.5234 17.3594 27.5234H9.74219V15.3359H18.8828V21.4297H14.3125C13.4712 21.4297 12.7891 22.1118 12.7891 22.9531C12.7891 23.7945 13.4712 24.4766 14.3125 24.4766H20.4062H26.5C27.3413 24.4766 28.0234 23.7945 28.0234 22.9531C28.0234 22.1118 27.3413 21.4297 26.5 21.4297H21.9297V15.3359H34.1172V39.7109Z" />
    </g>
  </symbol>
  <symbol id="pantone" viewBox="0 0 53 52">
    <g>
      <path
        d="M11.2656 36.6641C8.74555 36.6641 6.69531 38.7143 6.69531 41.2344C6.69531 43.7544 8.74555 45.8047 11.2656 45.8047C13.7857 45.8047 15.8359 43.7544 15.8359 41.2344C15.8359 38.7143 13.7857 36.6641 11.2656 36.6641ZM11.2656 42.7578C10.4256 42.7578 9.74219 42.0744 9.74219 41.2344C9.74219 40.3944 10.4256 39.7109 11.2656 39.7109C12.1056 39.7109 12.7891 40.3944 12.7891 41.2344C12.7891 42.0744 12.1056 42.7578 11.2656 42.7578Z" />
      <path
        d="M49.7504 30.9497C50.7897 29.5433 50.9811 27.582 50.0361 25.9454L43.9455 15.2945C42.8919 13.4696 40.6701 12.6369 38.6882 13.1667C39.1102 11.2698 38.2823 9.23477 36.5124 8.21295L25.9584 2.11961C24.4511 1.24922 22.6489 1.33839 21.2628 2.19568C20.4596 0.880141 19.0104 0 17.3594 0H5.07031C2.55024 0 0.5 2.05024 0.5 4.57031C0.5 5.62707 0.5 46.2132 0.5 47.4297C0.5 49.9498 2.55024 52 5.07031 52C6.25382 52 42.1374 52 47.9297 52C50.4498 52 52.5 49.9498 52.5 47.4297V35.1406C52.5 33.2675 51.3669 31.6547 49.7504 30.9497ZM18.8828 47.4297C18.8828 48.2697 18.1994 48.9531 17.3594 48.9531H5.07031C4.23029 48.9531 3.54688 48.2697 3.54688 47.4297C3.54688 46.7337 3.54688 34.2857 3.54688 33.6172H18.8828V47.4297ZM18.8828 30.5703H3.54688V18.2812H18.8828V30.5703ZM18.8828 15.2344H3.54688V4.57031C3.54688 3.73029 4.23029 3.04688 5.07031 3.04688H17.3594C18.1994 3.04688 18.8828 3.73029 18.8828 4.57031V15.2344ZM21.9297 6.04988L22.3533 5.31609C22.7736 4.58839 23.7073 4.33814 24.4349 4.75831L34.989 10.8516C35.7167 11.2718 35.9668 12.2056 35.5456 12.9353L33.7853 15.9951C33.7412 16.0602 33.7016 16.1278 33.6683 16.1984L21.9297 36.6026V6.04988ZM21.9297 42.7126L36.171 17.9581L39.1156 16.258C39.8621 15.8271 40.8859 16.0888 41.3037 16.8125L47.3944 27.4633C47.8156 28.1929 47.57 29.1283 46.8328 29.5539C45.7449 30.1837 23.0011 43.3507 21.9297 43.971V42.7126ZM49.4531 47.4297C49.4531 48.2697 48.7697 48.9531 47.9297 48.9531H21.6677C21.8301 48.4951 21.9212 48.0039 21.9282 47.4926L45.8954 33.6172H47.9297C48.7697 33.6172 49.4531 34.3006 49.4531 35.1406V47.4297Z" />
    </g>
  </symbol>

  <symbol id="painting" viewBox="0 0 53 52">
    <g>
      <path
        d="M43.3594 4.57031C43.3594 2.05029 41.3091 0 38.7891 0H8.32031C5.80029 0 3.75 2.05029 3.75 4.57031V13.7109C3.75 16.231 5.80029 18.2813 8.32031 18.2813H38.7891C41.3091 18.2813 43.3594 16.231 43.3594 13.7109V12.1875H44.8828C45.7227 12.1875 46.4063 12.8711 46.4063 13.7109V19.8047C46.4063 20.6446 45.7227 21.3281 44.8828 21.3281H26.6016C24.0815 21.3281 22.0313 23.3784 22.0313 25.8984V30.4688H20.5078C19.6664 30.4688 18.9844 31.1507 18.9844 31.9922V38.003L17.4609 44.1952C16.4703 48.1573 19.464 52 23.5547 52C27.6473 52 30.6379 48.1533 29.65 44.2007L28.125 38.003V31.9922C28.125 31.1507 27.443 30.4688 26.6016 30.4688H25.0781V25.8984C25.0781 25.0586 25.7617 24.375 26.6016 24.375H44.8828C47.4028 24.375 49.4531 22.3247 49.4531 19.8047V13.7109C49.4531 11.1909 47.4028 9.14063 44.8828 9.14063H43.3594V4.57031ZM25.0781 33.5156V36.6641H22.0313V33.5156H25.0781ZM23.5547 48.9531C21.456 48.9531 19.9044 46.9834 20.4182 44.9287L21.702 39.7109H25.4074L26.6924 44.9343C27.2026 46.9746 25.6609 48.9531 23.5547 48.9531ZM8.32031 3.04688H38.7891C39.6289 3.04688 40.3125 3.73044 40.3125 4.57031V6.09375H35.7422C34.2616 6.09375 32.3684 6.64838 30.1761 7.29028C27.2149 8.15753 23.859 9.14063 20.5078 9.14063C17.2412 9.14063 14.9381 8.18649 12.9061 7.34503C11.3525 6.70154 9.88541 6.09375 8.32031 6.09375H6.79688V4.57031C6.79688 3.73044 7.48044 3.04688 8.32031 3.04688ZM40.3125 13.7109C40.3125 14.5508 39.6289 15.2344 38.7891 15.2344H8.32031C7.48044 15.2344 6.79688 14.5508 6.79688 13.7109V9.14063H8.32031C9.27921 9.14063 10.3654 9.59052 11.7401 10.1598C13.9209 11.0632 16.6349 12.1875 20.5078 12.1875C24.2962 12.1875 28.031 11.0933 31.0326 10.2146C32.9179 9.66232 34.6988 9.14063 35.7422 9.14063H40.3125V13.7109Z" />
    </g>
  </symbol>

  <symbol id="prev" viewBox="0 0 18 12">
    <g>
      <path fill-rule="evenodd" clip-rule="evenodd"
        d="M6.20711 11.2071C5.81658 11.5976 5.18342 11.5976 4.79289 11.2071L0.292892 6.70711C-0.0976315 6.31658 -0.0976315 5.68342 0.292892 5.29289L4.79289 0.792893C5.18342 0.402369 5.81658 0.402369 6.20711 0.792893C6.59763 1.18342 6.59763 1.81658 6.20711 2.20711L3.41421 5L17 5C17.5523 5 18 5.44772 18 6C18 6.55228 17.5523 7 17 7L3.41421 7L6.20711 9.79289C6.59763 10.1834 6.59763 10.8166 6.20711 11.2071Z" />
    </g>
  </symbol>
  <symbol id="next" viewBox="0 0 18 12">
    <g>
      <path fill-rule="evenodd" clip-rule="evenodd"
        d="M11.7929 0.792893C12.1834 0.402369 12.8166 0.402369 13.2071 0.792893L17.7071 5.29289C18.0976 5.68342 18.0976 6.31658 17.7071 6.70711L13.2071 11.2071C12.8166 11.5976 12.1834 11.5976 11.7929 11.2071C11.4024 10.8166 11.4024 10.1834 11.7929 9.79289L14.5858 7H1C0.447715 7 0 6.55228 0 6C0 5.44772 0.447715 5 1 5H14.5858L11.7929 2.20711C11.4024 1.81658 11.4024 1.18342 11.7929 0.792893Z" />
    </g>
  </symbol>

  <symbol id='01' viewBox="0 0 44 34">
    <g>
      <path
        d="M23.564 16.992C23.564 22.3587 22.5367 26.4833 20.482 29.366C18.458 32.218 15.652 33.644 12.064 33.644C8.476 33.644 5.65467 32.218 3.6 29.366C1.576 26.4833 0.564 22.3587 0.564 16.992C0.564 14.324 0.824667 11.9627 1.346 9.908C1.898 7.85333 2.68 6.12067 3.692 4.71C4.704 3.29933 5.91533 2.226 7.326 1.49C8.73667 0.753997 10.316 0.385998 12.064 0.385998C15.652 0.385998 18.458 1.82733 20.482 4.71C22.5367 7.562 23.564 11.656 23.564 16.992ZM16.572 16.992C16.572 15.3973 16.4953 13.956 16.342 12.668C16.1887 11.3493 15.9433 10.2147 15.606 9.264C15.2687 8.31333 14.8087 7.57733 14.226 7.056C13.6433 6.53467 12.9227 6.274 12.064 6.274C11.2053 6.274 10.4847 6.53467 9.902 7.056C9.35 7.57733 8.89 8.31333 8.522 9.264C8.18467 10.2147 7.93933 11.3493 7.786 12.668C7.63267 13.956 7.556 15.3973 7.556 16.992C7.556 18.5867 7.63267 20.0433 7.786 21.362C7.93933 22.6807 8.18467 23.8153 8.522 24.766C8.89 25.7167 9.35 26.4527 9.902 26.974C10.4847 27.4953 11.2053 27.756 12.064 27.756C12.9227 27.756 13.6433 27.4953 14.226 26.974C14.8087 26.4527 15.2687 25.7167 15.606 24.766C15.9433 23.8153 16.1887 22.6807 16.342 21.362C16.4953 20.0433 16.572 18.5867 16.572 16.992ZM28.3645 7.746C29.2539 7.378 30.1739 6.964 31.1245 6.504C32.1059 6.01333 33.0565 5.492 33.9765 4.94C34.8965 4.35733 35.7705 3.75933 36.5985 3.146C37.4572 2.502 38.2239 1.82733 38.8985 1.122H43.6825V33H36.8285V10.046C35.9085 10.6593 34.8812 11.2267 33.7465 11.748C32.6119 12.2387 31.5079 12.668 30.4345 13.036L28.3645 7.746Z" />
    </g>
  </symbol>
  <symbol id='02' viewBox="0 0 49 34">
    <g>
      <path
        d="M23.564 16.992C23.564 22.3587 22.5367 26.4833 20.482 29.366C18.458 32.218 15.652 33.644 12.064 33.644C8.476 33.644 5.65467 32.218 3.6 29.366C1.576 26.4833 0.564 22.3587 0.564 16.992C0.564 14.324 0.824667 11.9627 1.346 9.908C1.898 7.85333 2.68 6.12067 3.692 4.71C4.704 3.29933 5.91533 2.226 7.326 1.49C8.73667 0.753997 10.316 0.385998 12.064 0.385998C15.652 0.385998 18.458 1.82733 20.482 4.71C22.5367 7.562 23.564 11.656 23.564 16.992ZM16.572 16.992C16.572 15.3973 16.4953 13.956 16.342 12.668C16.1887 11.3493 15.9433 10.2147 15.606 9.264C15.2687 8.31333 14.8087 7.57733 14.226 7.056C13.6433 6.53467 12.9227 6.274 12.064 6.274C11.2053 6.274 10.4847 6.53467 9.902 7.056C9.35 7.57733 8.89 8.31333 8.522 9.264C8.18467 10.2147 7.93933 11.3493 7.786 12.668C7.63267 13.956 7.556 15.3973 7.556 16.992C7.556 18.5867 7.63267 20.0433 7.786 21.362C7.93933 22.6807 8.18467 23.8153 8.522 24.766C8.89 25.7167 9.35 26.4527 9.902 26.974C10.4847 27.4953 11.2053 27.756 12.064 27.756C12.9227 27.756 13.6433 27.4953 14.226 26.974C14.8087 26.4527 15.2687 25.7167 15.606 24.766C15.9433 23.8153 16.1887 22.6807 16.342 21.362C16.4953 20.0433 16.572 18.5867 16.572 16.992ZM47.9605 9.494C47.9605 10.6593 47.7305 11.7787 47.2705 12.852C46.8105 13.9253 46.2125 14.968 45.4765 15.98C44.7405 16.9613 43.9125 17.912 42.9925 18.832C42.0725 19.752 41.1679 20.626 40.2785 21.454C39.8185 21.8833 39.3125 22.374 38.7605 22.926C38.2392 23.4473 37.7332 23.984 37.2425 24.536C36.7519 25.088 36.3072 25.6093 35.9085 26.1C35.5405 26.56 35.3105 26.9433 35.2185 27.25H48.9265V33H27.6745C27.6132 32.6627 27.5825 32.2333 27.5825 31.712C27.5825 31.1907 27.5825 30.8227 27.5825 30.608C27.5825 29.136 27.8125 27.7867 28.2725 26.56C28.7632 25.3333 29.3919 24.1987 30.1585 23.156C30.9252 22.0827 31.7839 21.086 32.7345 20.166C33.7159 19.246 34.6819 18.326 35.6325 17.406C36.3685 16.7007 37.0585 16.0413 37.7025 15.428C38.3465 14.784 38.9139 14.1707 39.4045 13.588C39.8952 12.9747 40.2785 12.3767 40.5545 11.794C40.8305 11.1807 40.9685 10.5673 40.9685 9.954C40.9685 8.60467 40.5852 7.654 39.8185 7.102C39.0519 6.55 38.1012 6.274 36.9665 6.274C36.1385 6.274 35.3565 6.412 34.6205 6.688C33.9152 6.93333 33.2559 7.24 32.6425 7.608C32.0599 7.94533 31.5539 8.298 31.1245 8.666C30.6952 9.00333 30.3732 9.27933 30.1585 9.494L26.7545 4.71C28.1039 3.45267 29.6679 2.42533 31.4465 1.628C33.2559 0.799998 35.1879 0.385998 37.2425 0.385998C39.1132 0.385998 40.7232 0.600664 42.0725 1.03C43.4219 1.45933 44.5259 2.07266 45.3845 2.87C46.2739 3.63666 46.9179 4.58733 47.3165 5.722C47.7459 6.826 47.9605 8.08333 47.9605 9.494Z" />
    </g>
  </symbol>
  <symbol id='03' viewBox="0 0 49 34">
    <g>
      <path
        d="M23.564 16.992C23.564 22.3587 22.5367 26.4833 20.482 29.366C18.458 32.218 15.652 33.644 12.064 33.644C8.476 33.644 5.65467 32.218 3.6 29.366C1.576 26.4833 0.564 22.3587 0.564 16.992C0.564 14.324 0.824667 11.9627 1.346 9.908C1.898 7.85333 2.68 6.12067 3.692 4.71C4.704 3.29933 5.91533 2.226 7.326 1.49C8.73667 0.753997 10.316 0.385998 12.064 0.385998C15.652 0.385998 18.458 1.82733 20.482 4.71C22.5367 7.562 23.564 11.656 23.564 16.992ZM16.572 16.992C16.572 15.3973 16.4953 13.956 16.342 12.668C16.1887 11.3493 15.9433 10.2147 15.606 9.264C15.2687 8.31333 14.8087 7.57733 14.226 7.056C13.6433 6.53467 12.9227 6.274 12.064 6.274C11.2053 6.274 10.4847 6.53467 9.902 7.056C9.35 7.57733 8.89 8.31333 8.522 9.264C8.18467 10.2147 7.93933 11.3493 7.786 12.668C7.63267 13.956 7.556 15.3973 7.556 16.992C7.556 18.5867 7.63267 20.0433 7.786 21.362C7.93933 22.6807 8.18467 23.8153 8.522 24.766C8.89 25.7167 9.35 26.4527 9.902 26.974C10.4847 27.4953 11.2053 27.756 12.064 27.756C12.9227 27.756 13.6433 27.4953 14.226 26.974C14.8087 26.4527 15.2687 25.7167 15.606 24.766C15.9433 23.8153 16.1887 22.6807 16.342 21.362C16.4953 20.0433 16.572 18.5867 16.572 16.992ZM35.6325 33.69C34.8045 33.69 33.9305 33.6287 33.0105 33.506C32.0905 33.414 31.2012 33.276 30.3425 33.092C29.4839 32.908 28.7019 32.7087 27.9965 32.494C27.2912 32.2793 26.7392 32.08 26.3405 31.896L27.6745 26.192C28.4719 26.5293 29.4839 26.8973 30.7105 27.296C31.9679 27.664 33.5165 27.848 35.3565 27.848C37.4725 27.848 39.0212 27.4493 40.0025 26.652C40.9839 25.8547 41.4745 24.7813 41.4745 23.432C41.4745 22.604 41.2905 21.914 40.9225 21.362C40.5852 20.7793 40.1099 20.3193 39.4965 19.982C38.8832 19.614 38.1472 19.3687 37.2885 19.246C36.4605 19.0927 35.5712 19.016 34.6205 19.016H31.9525V13.496H34.9885C35.6632 13.496 36.3072 13.4347 36.9205 13.312C37.5645 13.1893 38.1319 12.99 38.6225 12.714C39.1132 12.4073 39.4965 12.0087 39.7725 11.518C40.0792 10.9967 40.2325 10.3527 40.2325 9.586C40.2325 9.00333 40.1099 8.49733 39.8645 8.068C39.6192 7.63866 39.2972 7.286 38.8985 7.01C38.5305 6.734 38.0859 6.53467 37.5645 6.412C37.0739 6.25867 36.5679 6.182 36.0465 6.182C34.7279 6.182 33.5012 6.38133 32.3665 6.78C31.2625 7.17866 30.2505 7.66933 29.3305 8.252L26.8925 3.238C27.3832 2.93133 27.9505 2.60933 28.5945 2.272C29.2692 1.93467 30.0052 1.628 30.8025 1.352C31.5999 1.076 32.4432 0.845999 33.3325 0.662C34.2525 0.477998 35.2185 0.385998 36.2305 0.385998C38.1012 0.385998 39.7112 0.615998 41.0605 1.076C42.4405 1.50533 43.5752 2.134 44.4645 2.962C45.3539 3.75933 46.0132 4.71 46.4425 5.814C46.8719 6.88733 47.0865 8.068 47.0865 9.356C47.0865 10.6133 46.7339 11.84 46.0285 13.036C45.3232 14.2013 44.3725 15.0907 43.1765 15.704C44.8325 16.3787 46.1052 17.3907 46.9945 18.74C47.9145 20.0587 48.3745 21.6533 48.3745 23.524C48.3745 24.996 48.1292 26.3607 47.6385 27.618C47.1479 28.8447 46.3812 29.918 45.3385 30.838C44.2959 31.7273 42.9619 32.4327 41.3365 32.954C39.7419 33.4447 37.8405 33.69 35.6325 33.69Z" />
    </g>
  </symbol>
  <symbol id='04' viewBox="0 0 50 34">
    <g>
      <path
        d="M23.564 16.992C23.564 22.3587 22.5367 26.4833 20.482 29.366C18.458 32.218 15.652 33.644 12.064 33.644C8.476 33.644 5.65467 32.218 3.6 29.366C1.576 26.4833 0.564 22.3587 0.564 16.992C0.564 14.324 0.824667 11.9627 1.346 9.908C1.898 7.85333 2.68 6.12067 3.692 4.71C4.704 3.29933 5.91533 2.226 7.326 1.49C8.73667 0.753997 10.316 0.385998 12.064 0.385998C15.652 0.385998 18.458 1.82733 20.482 4.71C22.5367 7.562 23.564 11.656 23.564 16.992ZM16.572 16.992C16.572 15.3973 16.4953 13.956 16.342 12.668C16.1887 11.3493 15.9433 10.2147 15.606 9.264C15.2687 8.31333 14.8087 7.57733 14.226 7.056C13.6433 6.53467 12.9227 6.274 12.064 6.274C11.2053 6.274 10.4847 6.53467 9.902 7.056C9.35 7.57733 8.89 8.31333 8.522 9.264C8.18467 10.2147 7.93933 11.3493 7.786 12.668C7.63267 13.956 7.556 15.3973 7.556 16.992C7.556 18.5867 7.63267 20.0433 7.786 21.362C7.93933 22.6807 8.18467 23.8153 8.522 24.766C8.89 25.7167 9.35 26.4527 9.902 26.974C10.4847 27.4953 11.2053 27.756 12.064 27.756C12.9227 27.756 13.6433 27.4953 14.226 26.974C14.8087 26.4527 15.2687 25.7167 15.606 24.766C15.9433 23.8153 16.1887 22.6807 16.342 21.362C16.4953 20.0433 16.572 18.5867 16.572 16.992ZM39.8185 9.494C38.6225 11.058 37.3499 12.76 36.0005 14.6C34.6512 16.44 33.5165 18.326 32.5965 20.258H39.8185V9.494ZM46.5345 1.122V20.258H49.9385V25.87H46.5345V33H39.8185V25.87H26.0645V20.856C26.7392 19.5067 27.5825 17.9887 28.5945 16.302C29.6065 14.5847 30.7259 12.8367 31.9525 11.058C33.2099 9.24867 34.5285 7.48533 35.9085 5.768C37.2885 4.05067 38.6685 2.502 40.0485 1.122H46.5345Z" />
    </g>
  </symbol>
</svg>