<svg width="24.000000" height="24.000000" viewBox="0 0 24 24" fill="none" xmlns="http://www.w3.org/2000/svg" xmlns:xlink="http://www.w3.org/1999/xlink">
	<desc>
			Created with Pixso.
	</desc>
	<defs>
		<clipPath id="clip2111_4966">
			<rect id="Linked-In" width="24.000000" height="24.000000" fill="white" fill-opacity="0"/>
		</clipPath>
	</defs>
	<g clip-path="url(#clip2111_4966)">
		<path id="Vector" d="M2 4.40137C2 3.07617 3.07617 2 4.40234 2C5.72656 2 6.80273 3.07617 6.80273 4.40137C6.80273 5.72754 5.72656 6.82617 4.40234 6.82617C3.07617 6.82617 2 5.72754 2 4.40137ZM21.9941 22L22 21.999L22 14.6641C22 11.0762 21.2266 8.31152 17.0332 8.31152C15.0156 8.31152 13.6621 9.41797 13.1094 10.4678L13.0508 10.4678L13.0508 8.64648L9.07422 8.64648L9.07422 21.999L13.2168 21.999L13.2168 15.3877C13.2168 13.6465 13.5449 11.9629 15.7012 11.9629C17.8262 11.9629 17.8574 13.9502 17.8574 15.499L17.8574 22L21.9941 22ZM2.33008 8.64746L6.47656 8.64746L6.47656 22L2.33008 22L2.33008 8.64746Z" fill="#787A80" fill-opacity="1.000000" fill-rule="evenodd"/>
	</g>
</svg>
