<svg width="24.000000" height="24.000000" viewBox="0 0 24 24" fill="none" xmlns="http://www.w3.org/2000/svg" xmlns:xlink="http://www.w3.org/1999/xlink">
	<desc>
			Created with Pixso.
	</desc>
	<defs/>
	<path id="Vector" d="M22.5 5.77246C21.7266 6.10059 20.8984 6.32227 20.0273 6.42188C20.916 5.91211 21.5977 5.10254 21.9199 4.1416C21.0859 4.61426 20.1641 4.95703 19.1816 5.14258C18.3965 4.33984 17.2793 3.83984 16.0391 3.83984C13.6602 3.83984 11.7305 5.68652 11.7305 7.96387C11.7305 8.28613 11.7676 8.60156 11.8418 8.90332C8.26172 8.73145 5.08789 7.08887 2.96289 4.59375C2.5918 5.20215 2.38086 5.91016 2.38086 6.66699C2.38086 8.09766 3.14258 9.36133 4.29688 10.0996C3.58984 10.0771 2.92578 9.8916 2.3457 9.58203L2.3457 9.63379C2.3457 11.6318 3.83008 13.2988 5.80078 13.6787C5.43945 13.7715 5.05859 13.8232 4.66602 13.8232C4.38672 13.8232 4.11719 13.7969 3.85352 13.7461C4.40234 15.3857 5.99219 16.5781 7.87695 16.6113C6.4043 17.7168 4.54492 18.374 2.52734 18.374C2.17969 18.374 1.83789 18.3535 1.5 18.3174C3.40625 19.4893 5.66992 20.1729 8.10352 20.1729C16.0273 20.1729 20.3594 13.8877 20.3594 8.4375L20.3457 7.90332C21.1914 7.3252 21.9238 6.59961 22.5 5.77246Z" fill="#787A80" fill-opacity="1.000000" fill-rule="nonzero"/>
</svg>
